HIERARCHY
ROOT SpineBase
{
  OFFSET 0.000000 0.000000 0.000000
  CHANNELS 6 Xposition Yposition Zposition Zrotation Xrotation Yrotation
  JOINT SpineMid
  {
    OFFSET 0.000000 26.140228 0.000000
    CHANNELS 3 Zrotation Xrotation Yrotation
    JOINT SpineShoulder
    {
      OFFSET -0.013360 19.473314 -0.582652
      CHANNELS 3 Zrotation Xrotation Yrotation
      JOINT Neck
      {
        OFFSET -0.021199 6.479226 -0.461306
        CHANNELS 3 Zrotation Xrotation Yrotation
        JOINT Head
        {
          OFFSET -3.126595 12.088884 0.803116
          CHANNELS 3 Zrotation Xrotation Yrotation
          End Site
          {
            OFFSET 0 0 0
          }
        }
      }
      JOINT ShoulderLeft
      {
        OFFSET -11.207119 -1.137212 5.202353
        CHANNELS 3 Zrotation Xrotation Yrotation
        JOINT ElbowLeft
        {
          OFFSET -2.081743 -23.362437 7.042662
          CHANNELS 3 Zrotation Xrotation Yrotation
          JOINT WristLeft
          {
            OFFSET -1.520805 -19.618414 -0.770334
            CHANNELS 3 Zrotation Xrotation Yrotation
            JOINT HandLeft
            {
              OFFSET -1.486953 -4.534156 0.376144
              CHANNELS 3 Zrotation Xrotation Yrotation
              JOINT HandTipLeft
              {
                OFFSET 0.501077 -4.817671 -3.880512
                CHANNELS 3 Zrotation Xrotation Yrotation
                End Site
                {
                  OFFSET 0 0 0
                }
              }
              JOINT ThumbLeft
              {
                OFFSET -0.624410 -0.300516 -1.603579
                CHANNELS 3 Zrotation Xrotation Yrotation
                End Site
                {
                  OFFSET 0 0 0
                }
              }
            }
          }
        }
      }
      JOINT ShoulderRight
      {
        OFFSET 11.147404 -1.513793 -6.853279
        CHANNELS 3 Zrotation Xrotation Yrotation
        JOINT ElbowRight
        {
          OFFSET 8.262255 -21.931148 0.222081
          CHANNELS 3 Zrotation Xrotation Yrotation
          JOINT WristRight
          {
            OFFSET 2.098847 -17.834390 -4.786237
            CHANNELS 3 Zrotation Xrotation Yrotation
            JOINT HandRight
            {
              OFFSET -0.932276 -6.427510 -0.553175
              CHANNELS 3 Zrotation Xrotation Yrotation
              JOINT HandTipRight
              {
                OFFSET -0.575757 -5.544797 -1.045434
                CHANNELS 3 Zrotation Xrotation Yrotation
                End Site
                {
                  OFFSET 0 0 0
                }
              }
              JOINT ThumbRight
              {
                OFFSET -2.133359 -1.352936 -1.564937
                CHANNELS 3 Zrotation Xrotation Yrotation
                End Site
                {
                  OFFSET 0 0 0
                }
              }
            }
          }
        }
      }
    }
  }
  JOINT HipLeft
  {
    OFFSET -5.233043 0.438917 -1.020357
    CHANNELS 3 Zrotation Xrotation Yrotation
    JOINT KneeLeft
    {
      OFFSET 3.243393 -32.503798 1.597926
      CHANNELS 3 Zrotation Xrotation Yrotation
      JOINT AnkleLeft
      {
        OFFSET 7.291001 -32.627874 3.971600
        CHANNELS 3 Zrotation Xrotation Yrotation
        JOINT FootLeft
        {
          OFFSET -3.990727 -2.704228 -9.630987
          CHANNELS 3 Zrotation Xrotation Yrotation
          End Site
          {
            OFFSET 0 0 0
          }
        }
      }
    }
  }
  JOINT HipRight
  {
    OFFSET 4.727071 1.255932 -4.874065
    CHANNELS 3 Zrotation Xrotation Yrotation
    JOINT KneeRight
    {
      OFFSET 5.680847 -31.229571 -1.428064
      CHANNELS 3 Zrotation Xrotation Yrotation
      JOINT AnkleRight
      {
        OFFSET 3.287411 -31.598183 5.732895
        CHANNELS 3 Zrotation Xrotation Yrotation
        JOINT FootRight
        {
          OFFSET -4.631563 -4.927151 -5.577583
          CHANNELS 3 Zrotation Xrotation Yrotation
          End Site
          {
            OFFSET 0 0 0
          }
        }
      }
    }
  }
}
MOTION
Frames: 9
Frame Time: 0.033333
29.049745 71.882904 358.941885 -0.000000 0.000000 21.152157 -0.000000 0.000000 -21.152157 -0.000000 0.000000 0.000000 -0.000000 0.000000 0.000000 0.000000 0.000000 0.000000 -0.000000 0.000000 0.000000 -0.000000 0.000000 0.000000 -0.000000 0.000000 0.000000 -0.000000 0.000000 0.000000 0.000000 0.000000 0.000000 0.000000 0.000000 0.000000 -0.000000 0.000000 0.000000 -0.000000 0.000000 0.000000 -0.000000 0.000000 0.000000 -0.000000 0.000000 0.000000 0.000000 0.000000 0.000000 0.000000 0.000000 0.000000 -0.000000 0.000000 -21.152157 -0.000000 0.000000 0.000000 -0.000000 0.000000 0.000000 0.000000 0.000000 0.000000 -0.000000 0.000000 -21.152157 -0.000000 0.000000 0.000000 -0.000000 0.000000 0.000000 0.000000 0.000000 0.000000
29.057138 71.871976 358.966970 0.039972 0.008789 21.149157 -0.040450 0.006224 -21.149158 -0.000000 0.000000 0.000000 -0.000000 0.000000 0.000000 0.000000 0.000000 0.000000 -0.000000 0.000000 0.000000 -0.240076 -0.820004 0.071284 2.021269 6.634893 -1.970563 -2.885172 -10.857757 2.165307 0.000000 0.000000 0.000000 0.000000 0.000000 0.000000 -0.000000 0.000000 0.000000 -0.000000 0.000000 0.000000 -0.000000 0.000000 0.000000 -0.000000 0.000000 0.000000 0.000000 0.000000 0.000000 0.000000 0.000000 0.000000 -0.040450 0.006224 -21.149158 -0.000000 0.000000 0.000000 1.698094 -4.887602 1.502742 0.000000 0.000000 0.000000 -0.040450 0.006224 -21.149158 -0.000000 0.000000 0.000000 4.149869 -11.035962 7.120786 0.000000 0.000000 0.000000
29.062115 71.858515 358.991531 0.078581 0.014157 21.167050 -0.078391 0.015173 -21.167049 -0.000000 0.000000 0.000000 -0.000000 0.000000 0.000000 0.000000 0.000000 0.000000 0.814346 0.632577 0.185053 -1.327293 -2.254688 -0.060932 4.206110 12.816628 -4.073422 -5.206615 -20.641718 3.784389 0.000000 0.000000 0.000000 0.000000 0.000000 0.000000 -0.000000 0.000000 0.000000 -0.000000 0.000000 0.000000 -0.000000 0.000000 0.000000 -0.000000 0.000000 0.000000 0.000000 0.000000 0.000000 0.000000 0.000000 0.000000 -0.078391 0.015173 -21.167049 -0.000000 0.000000 0.000000 3.365195 -9.291216 3.036546 0.000000 0.000000 0.000000 -0.915210 -0.280606 -21.243426 0.672819 0.578857 0.071040 9.333109 -20.448690 14.560594 0.000000 0.000000 0.000000
29.064677 71.842521 359.015567 0.115836 0.016110 21.205839 -0.113820 0.026881 -21.205829 -0.000000 0.000000 0.000000 -0.000000 0.000000 0.000000 0.000000 0.000000 0.000000 1.136012 0.835252 0.260559 -1.946460 -3.237200 -0.087529 6.507280 18.389437 -6.254832 -7.063009 -28.854563 4.990119 0.000000 0.000000 0.000000 0.000000 0.000000 0.000000 -0.000000 0.000000 0.000000 -0.000000 0.000000 0.000000 -0.000000 0.000000 0.000000 -0.000000 0.000000 0.000000 0.000000 0.000000 0.000000 0.000000 0.000000 0.000000 -0.113820 0.026881 -21.205829 -0.000000 0.000000 0.000000 4.675218 -12.495065 4.299217 0.000000 0.000000 0.000000 -1.230662 -0.362000 -21.307529 0.899267 0.768060 0.092407 14.580807 -27.249076 21.334188 0.000000 0.000000 0.000000
29.064824 71.823993 359.039078 0.151745 0.014656 21.265504 -0.146728 0.041378 -21.265470 -0.000000 0.000000 0.000000 -0.000000 0.000000 0.000000 0.000000 0.000000 0.000000 1.401039 0.961983 0.326064 -2.533249 -4.112258 -0.110371 8.862467 23.254798 -8.446776 -8.518449 -35.172062 5.889262 0.000000 0.000000 0.000000 0.000000 0.000000 0.000000 0.136793 0.754040 0.284454 -0.140547 -0.753350 -0.286278 -0.000000 0.000000 0.000000 -0.000000 0.000000 0.000000 0.000000 0.000000 0.000000 0.000000 0.000000 0.000000 -0.146728 0.041378 -21.265470 -0.000000 0.000000 0.000000 5.279828 -13.916475 4.956187 0.000000 0.000000 0.000000 -1.458397 -0.406583 -21.383904 1.058161 0.895269 0.105986 18.905450 -31.507570 26.551749 0.000000 0.000000 0.000000
29.062554 71.802932 359.062064 0.186313 0.009801 21.345991 -0.177099 0.058689 -21.345916 -0.000000 0.000000 0.000000 -0.000000 0.000000 0.000000 0.000000 0.000000 0.000000 1.609650 1.012654 0.382298 -3.084882 -4.871859 -0.128352 11.195695 27.363730 -10.568020 -9.610937 -39.430105 6.565548 0.000000 0.000000 0.000000 0.000000 0.000000 0.000000 0.190395 0.869917 0.328037 0.107993 -1.650418 -0.498939 -0.819135 1.901181 0.069300 0.507652 -1.122805 0.124330 0.000000 0.000000 0.000000 0.000000 0.000000 0.000000 -0.177099 0.058689 -21.345916 -0.000000 0.000000 0.000000 4.988017 -13.292171 4.817044 0.000000 0.000000 0.000000 -1.601519 -0.415560 -21.472528 1.152106 0.962615 0.112497 21.659702 -33.724451 29.668415 0.000000 0.000000 0.000000
29.063403 71.778449 359.089529 0.237095 0.006758 21.448829 -0.223146 0.080409 -21.448686 -0.000000 0.000000 0.000000 -0.000000 0.000000 0.000000 0.000000 0.000000 0.000000 1.782362 0.968937 0.437648 -3.684710 -5.485393 -0.148598 13.634000 31.756815 -13.085528 -10.114643 -43.507450 7.432769 0.000000 0.000000 0.000000 0.000000 0.000000 0.000000 0.240334 0.978523 0.368775 0.107780 -2.083842 -0.590966 -1.354059 3.311600 0.032966 1.835482 -5.303044 0.476820 0.000000 0.000000 0.000000 0.000000 0.000000 0.000000 -0.223146 0.080409 -21.448686 -0.000000 0.000000 0.000000 2.830086 -8.148925 3.051089 0.000000 0.000000 0.000000 -1.557876 -0.278571 -21.549964 1.109671 0.824060 0.090989 16.030568 -28.258735 21.888194 0.000000 0.000000 0.000000
29.057003 71.747767 359.117419 0.271960 -0.001551 21.588722 -0.252311 0.101508 -21.588494 -0.000000 0.000000 0.000000 -0.000000 0.000000 0.000000 0.000000 0.000000 0.000000 1.895777 0.858357 0.482649 -4.120063 -5.757880 -0.170399 14.326540 31.662037 -13.112288 -9.965890 -39.526857 7.233538 0.000000 0.000000 0.000000 0.000000 0.000000 0.000000 0.285299 1.033400 0.389314 0.105637 -2.472808 -0.661881 -2.037853 4.688408 0.037824 2.654604 -6.953421 0.669649 0.000000 0.000000 0.000000 0.000000 0.000000 0.000000 -0.252311 0.101508 -21.588494 -0.000000 0.000000 0.000000 0.534996 -2.042771 1.203756 0.000000 0.000000 0.000000 -1.557651 -0.219300 -21.681553 1.094551 0.780293 0.084263 15.740807 -28.885157 23.668244 0.000000 0.000000 0.000000
29.048105 71.716268 359.138793 0.285073 -0.026149 21.760214 -0.255066 0.129968 -21.759860 -0.000000 0.000000 0.000000 -0.000000 0.000000 0.000000 0.000000 0.000000 0.000000 1.926166 0.703251 0.507912 -4.589325 -6.275087 -0.155004 15.639930 33.111750 -14.031163 -8.925702 -38.230691 7.239912 0.000000 0.000000 0.000000 0.000000 0.000000 0.000000 0.424616 1.041800 0.392421 -0.004691 -2.836755 -0.716129 -2.769679 6.100114 0.068953 4.006666 -8.004724 0.774146 0.000000 0.000000 0.000000 0.000000 0.000000 0.000000 -0.255066 0.129968 -21.759860 -0.899139 -0.439413 -0.211360 -0.609442 4.351648 -0.145822 0.000000 0.000000 0.000000 -1.497042 -0.168403 -21.846921 1.041812 0.739062 0.079925 19.459995 -30.790131 23.979306 0.000000 0.000000 0.000000
